<?xml version="1.0" standalone="no"?>
<!DOCTYPE svg PUBLIC "-//W3C//DTD SVG 20010904//EN"
 "http://www.w3.org/TR/2001/REC-SVG-20010904/DTD/svg10.dtd">
<svg version="1.0" xmlns="http://www.w3.org/2000/svg"
 width="420.000000pt" height="180.000000pt" viewBox="0 0 420.000000 180.000000"
 preserveAspectRatio="xMidYMid meet">

<g transform="translate(0.000000,180.000000) scale(0.100000,-0.100000)"
fill="#000000" stroke="none">
<path d="M0 900 l0 -900 2100 0 2100 0 0 900 0 900 -2100 0 -2100 0 0 -900z
m2428 348 c3 -15 -4 -18 -41 -18 -38 0 -46 -3 -51 -22 -12 -48 -10 -49 56 -42
l61 7 -5 -39 c-4 -21 -11 -52 -17 -68 -9 -23 -14 -26 -26 -16 -9 8 -12 22 -8
41 6 34 -10 38 -56 15 -41 -22 -56 -43 -42 -60 6 -8 14 -37 18 -65 5 -47 4
-51 -14 -51 -21 0 -33 24 -33 67 0 12 -10 29 -22 37 -20 14 -22 14 -33 -7 -13
-26 -43 -29 -58 -5 -9 13 -7 21 6 36 17 19 17 20 -8 39 -21 15 -27 29 -32 76
-5 52 -4 57 14 57 17 0 22 -9 27 -49 4 -31 12 -51 23 -55 23 -9 81 39 98 82
21 50 37 59 92 58 37 -1 48 -5 51 -18z m-470 -234 c22 -15 22 -18 22 -265 l0
-250 -152 3 -152 3 -7 34 c-9 45 -38 71 -86 78 -32 4 -44 0 -71 -22 -19 -16
-34 -40 -38 -61 -6 -34 -8 -35 -48 -32 l-41 3 -2 254 c-1 140 0 258 3 263 3 4
128 8 277 8 231 0 276 -2 295 -16z m1610 -37 c-2 -12 -13 -27 -26 -33 -21 -10
-21 -12 -4 -27 16 -15 20 -14 47 8 65 53 81 15 19 -46 l-44 -43 -23 22 -23 22
-24 -25 -24 -25 28 -29 29 -30 -20 -78 c-16 -66 -22 -79 -41 -81 -18 -3 -22 1
-22 25 0 15 4 45 9 65 7 32 5 40 -15 59 l-24 23 -29 -28 c-26 -25 -34 -27 -97
-24 -61 3 -69 5 -69 23 0 17 8 20 50 23 47 2 53 6 107 64 63 70 69 93 9 34
-36 -35 -61 -41 -61 -15 0 6 16 31 36 55 35 42 39 44 90 44 42 0 52 3 48 14
-3 8 5 21 17 29 29 21 62 5 57 -26z m-2694 -40 c9 -15 7 -21 -8 -33 -15 -11
-57 -14 -184 -14 -160 0 -202 7 -202 33 0 34 23 37 204 35 160 -3 180 -5 190
-21z m1409 -146 c45 -85 47 -91 47 -174 0 -64 -4 -89 -16 -101 -25 -26 -43
-19 -54 23 -29 107 -159 107 -191 0 -10 -31 -17 -39 -36 -39 l-23 0 0 190 0
190 113 0 113 0 47 -89z m-1269 53 c15 -39 -8 -44 -201 -44 -154 0 -185 2
-189 15 -4 8 -4 22 0 30 4 13 36 15 195 15 165 0 190 -2 195 -16z m2814 -16
c18 -18 14 -45 -8 -61 -18 -13 -19 -16 -5 -27 13 -11 19 -9 38 9 25 22 52 27
62 11 3 -5 -12 -29 -34 -52 l-40 -43 -30 17 c-28 16 -30 15 -52 -8 l-23 -24
27 -28 28 -29 -17 -76 c-10 -47 -23 -78 -32 -82 -28 -11 -36 11 -25 71 9 50 8
59 -8 75 -25 25 -31 24 -59 -6 -20 -21 -32 -25 -85 -25 -62 0 -88 12 -78 36 3
9 22 14 53 14 46 0 50 2 103 62 59 67 68 92 14 40 -61 -59 -85 -33 -31 33 35
43 39 45 90 45 45 0 54 3 54 18 0 20 18 42 35 42 6 0 16 -5 23 -12z m-2873
-98 l0 -25 -193 -3 c-165 -2 -193 0 -198 13 -4 8 -1 22 6 30 11 13 43 15 199
13 l186 -3 0 -25z m2115 -15 c0 -15 -7 -26 -21 -30 -19 -6 -20 -9 -6 -22 14
-14 18 -14 43 6 63 49 75 5 14 -54 l-40 -39 -23 22 -23 22 -24 -25 -24 -25 27
-28 27 -29 -15 -74 c-17 -80 -25 -95 -49 -86 -18 7 -20 34 -7 89 7 32 5 40
-15 59 l-24 23 -28 -27 c-25 -24 -36 -27 -94 -27 -44 0 -68 4 -71 13 -9 26 6
37 53 37 47 0 50 2 104 62 61 69 67 92 8 36 -34 -33 -62 -40 -62 -17 0 6 17
30 37 55 35 42 40 44 90 44 46 0 53 3 53 20 0 10 8 23 17 29 25 13 53 -5 53
-34z m-1453 -147 c31 -29 30 -71 -3 -97 -15 -12 -35 -21 -46 -21 -25 0 -68 44
-68 70 0 28 43 70 71 70 13 0 33 -10 46 -22z m601 -5 c20 -28 15 -80 -10 -97
-71 -50 -148 44 -87 105 24 24 75 20 97 -8z"/>
<path d="M2072 773 l3 -58 88 -3 c55 -2 87 1 87 8 0 5 -12 32 -27 60 l-28 50
-63 0 -63 0 3 -57z"/>
<path d="M1553 539 c-16 -16 -5 -39 17 -39 25 0 35 18 20 35 -15 18 -22 19
-37 4z"/>
<path d="M2153 543 c-7 -3 -13 -13 -13 -23 0 -19 17 -30 38 -23 6 3 12 13 12
23 0 19 -17 30 -37 23z"/>
</g>
</svg>
